<svg width="582" height="874" viewBox="0 0 582 874" fill="none" xmlns="http://www.w3.org/2000/svg">
<g clip-path="url(#clip0_1_137)">
<path d="M291 437C291 398.367 306.329 361.316 333.616 333.998C360.903 306.68 397.911 291.333 436.5 291.333C475.089 291.333 512.097 306.68 539.384 333.998C566.671 361.316 582 398.367 582 437C582 475.633 566.671 512.684 539.384 540.002C512.097 567.32 475.089 582.667 436.5 582.667C397.911 582.667 360.903 567.32 333.616 540.002C306.329 512.684 291 475.633 291 437V437Z" fill="#1ABCFE"/>
<path d="M0 728.333C0 689.7 15.3294 652.649 42.616 625.331C69.9025 598.014 106.911 582.667 145.5 582.667H291V728.333C291 766.967 275.671 804.017 248.384 831.335C221.097 858.653 184.089 874 145.5 874C106.911 874 69.9025 858.653 42.616 831.335C15.3294 804.017 0 766.967 0 728.333H0Z" fill="#0ACF83"/>
<path d="M291 0V291.333H436.5C475.089 291.333 512.097 275.986 539.384 248.669C566.671 221.351 582 184.3 582 145.667C582 107.033 566.671 69.9826 539.384 42.6648C512.097 15.347 475.089 0 436.5 0L291 0Z" fill="#FF7262"/>
<path d="M0 145.667C0 184.3 15.3294 221.351 42.616 248.669C69.9025 275.986 106.911 291.333 145.5 291.333H291V0H145.5C106.911 0 69.9025 15.347 42.616 42.6648C15.3294 69.9826 0 107.033 0 145.667H0Z" fill="#F24E1E"/>
<path d="M0 437C0 475.633 15.3294 512.684 42.616 540.002C69.9025 567.32 106.911 582.667 145.5 582.667H291V291.333H145.5C106.911 291.333 69.9025 306.68 42.616 333.998C15.3294 361.316 0 398.367 0 437H0Z" fill="#A259FF"/>
</g>
<defs>
<clipPath id="clip0_1_137">
<rect width="582" height="874" fill="white"/>
</clipPath>
</defs>
</svg>
